<?xml version="1.0" encoding="utf-8"?>
<!-- Generator: Adobe Illustrator 27.5.0, SVG Export Plug-In . SVG Version: 6.00 Build 0)  -->
<svg version="1.1" id="_x3C_Layer_x3E_" xmlns="http://www.w3.org/2000/svg" xmlns:xlink="http://www.w3.org/1999/xlink" x="0px"
	 y="0px" viewBox="0 0 2827.744 1820" style="enable-background:new 0 0 2827.744 1820;" xml:space="preserve">
<linearGradient id="SVGID_1_" gradientUnits="userSpaceOnUse" x1="1953.0132" y1="913.6808" x2="1953.0132" y2="2310.311">
	<stop  offset="0" style="stop-color:#F2F2F2"/>
	<stop  offset="1" style="stop-color:#FCFCFC"/>
</linearGradient>
<rect x="1078.299" y="1194.745" style="fill:url(#SVGID_1_);" width="1749.429" height="614.868"/>
<linearGradient id="SVGID_00000125567071376868249680000002672561893297148058_" gradientUnits="userSpaceOnUse" x1="1703.8711" y1="1449.7964" x2="2634.6445" y2="1449.7964">
	<stop  offset="0" style="stop-color:#DBDBE6"/>
	<stop  offset="1" style="stop-color:#FFFFFF"/>
</linearGradient>
<polygon style="fill:url(#SVGID_00000125567071376868249680000002672561893297148058_);" points="1703.871,1240.95 
	1703.871,1395.576 1764.115,1395.576 1764.115,1498.997 1834.4,1498.997 1834.4,1412.646 1888.62,1412.646 1888.62,1536.146 
	1877.576,1536.146 1877.576,1556.229 2002.08,1556.229 2002.08,1535.143 1990.031,1535.143 1990.031,1416.662 2019.149,1416.662 
	2019.149,1388.548 2072.364,1388.548 2072.364,1605.428 2125.581,1658.643 2143.654,1640.57 2161.336,1640.57 2161.336,1339.349 
	2221.972,1339.349 2221.972,1363.446 2268.158,1409.634 2305.31,1409.634 2305.31,1339.349 2343.464,1339.349 2343.464,1520.081 
	2404.713,1520.081 2404.713,1389.553 2454.916,1389.553 2454.916,1291.153 2521.185,1291.153 2521.185,1399.594 2634.645,1399.594 
	2634.645,1240.95 "/>
<g>
	
		<linearGradient id="SVGID_00000042017284513457725590000008150655864029989292_" gradientUnits="userSpaceOnUse" x1="1820.8457" y1="-11159.7676" x2="1820.8457" y2="-10798.4658" gradientTransform="matrix(1 0 0 -1 0 -9774.6748)">
		<stop  offset="0" style="stop-color:#FCFCFC"/>
		<stop  offset="1" style="stop-color:#FDFDFD"/>
	</linearGradient>
	
		<rect x="1807.291" y="1240.95" style="fill:url(#SVGID_00000042017284513457725590000008150655864029989292_);" width="27.109" height="258.047"/>
	
		<linearGradient id="SVGID_00000092456757529118926420000002410220398251231931_" gradientUnits="userSpaceOnUse" x1="1918.2402" y1="-11159.7666" x2="1918.2402" y2="-10798.4678" gradientTransform="matrix(1 0 0 -1 0 -9774.6748)">
		<stop  offset="0" style="stop-color:#FCFCFC"/>
		<stop  offset="1" style="stop-color:#FDFDFD"/>
	</linearGradient>
	<polygon style="fill:url(#SVGID_00000092456757529118926420000002410220398251231931_);" points="1946.187,1556.229 
		1946.187,1329.978 1886.611,1329.978 1886.611,1275.758 1834.4,1275.758 1834.4,1240.95 1990.031,1240.95 1990.031,1535.143 
		2002.08,1535.143 2002.08,1556.229 	"/>
	
		<linearGradient id="SVGID_00000005264528195162741780000001283028654253569459_" gradientUnits="userSpaceOnUse" x1="2075.6836" y1="973.0402" x2="2075.6836" y2="1698.5469">
		<stop  offset="0" style="stop-color:#FCFCFC"/>
		<stop  offset="1" style="stop-color:#FDFDFD"/>
	</linearGradient>
	<polygon style="fill:url(#SVGID_00000005264528195162741780000001283028654253569459_);" points="2125.581,1658.643 
		2125.581,1302.198 2073.369,1302.198 2073.369,1388.548 2044.252,1388.548 2044.252,1312.238 1990.031,1312.238 1990.031,1240.95 
		2161.336,1240.95 2161.336,1640.57 2143.654,1640.57 	"/>
	
		<linearGradient id="SVGID_00000124879035244736756280000001045983460600340891_" gradientUnits="userSpaceOnUse" x1="2233.3228" y1="973.0402" x2="2233.3228" y2="1698.5466">
		<stop  offset="0" style="stop-color:#FCFCFC"/>
		<stop  offset="1" style="stop-color:#FDFDFD"/>
	</linearGradient>
	<polygon style="fill:url(#SVGID_00000124879035244736756280000001045983460600340891_);" points="2268.158,1409.634 
		2268.158,1314.247 2234.773,1280.861 2208.919,1280.861 2208.919,1263.541 2161.336,1263.541 2161.336,1240.95 2305.31,1240.95 
		2305.31,1409.634 	"/>
	
		<linearGradient id="SVGID_00000148629272216563423390000013855499744780834476_" gradientUnits="userSpaceOnUse" x1="2391.9106" y1="973.0401" x2="2391.9106" y2="1698.5459">
		<stop  offset="0" style="stop-color:#FCFCFC"/>
		<stop  offset="1" style="stop-color:#FDFDFD"/>
	</linearGradient>
	
		<rect x="2379.108" y="1240.95" style="fill:url(#SVGID_00000148629272216563423390000013855499744780834476_);" width="25.604" height="279.131"/>
	
		<linearGradient id="SVGID_00000176031250013501022660000012955996641361807774_" gradientUnits="userSpaceOnUse" x1="2519.6787" y1="973.0392" x2="2519.6787" y2="1698.5497">
		<stop  offset="0" style="stop-color:#FCFCFC"/>
		<stop  offset="1" style="stop-color:#FDFDFD"/>
	</linearGradient>
	<polygon style="fill:url(#SVGID_00000176031250013501022660000012955996641361807774_);" points="2634.645,1399.594 
		2587.453,1399.594 2587.453,1281.113 2553.314,1281.113 2553.314,1257.685 2404.713,1257.685 2404.713,1240.95 2634.645,1240.95 	
		"/>
	
		<linearGradient id="SVGID_00000036223643049447882410000004483899556108031148_" gradientUnits="userSpaceOnUse" x1="2431.4463" y1="973.0403" x2="2431.4463" y2="1698.5465">
		<stop  offset="0" style="stop-color:#FCFCFC"/>
		<stop  offset="1" style="stop-color:#FDFDFD"/>
	</linearGradient>
	<polygon style="fill:url(#SVGID_00000036223643049447882410000004483899556108031148_);" points="2454.916,1389.553 
		2435.336,1389.553 2435.336,1277.599 2407.977,1250.238 2454.916,1250.238 	"/>
	
		<linearGradient id="SVGID_00000040536282334337296050000013448964882202011070_" gradientUnits="userSpaceOnUse" x1="1750.0586" y1="-11159.7666" x2="1750.0586" y2="-10798.4688" gradientTransform="matrix(1 0 0 -1 0 -9774.6748)">
		<stop  offset="0" style="stop-color:#FCFCFC"/>
		<stop  offset="1" style="stop-color:#FDFDFD"/>
	</linearGradient>
	
		<rect x="1736.002" y="1240.95" style="fill:url(#SVGID_00000040536282334337296050000013448964882202011070_);" width="28.113" height="154.626"/>
</g>
<rect x="811.037" y="0.007" style="fill:#FFFFFF;" width="2016.69" height="1240.493"/>
<linearGradient id="SVGID_00000013155587988945827980000008306176744375082671_" gradientUnits="userSpaceOnUse" x1="1819.4048" y1="1853.5151" x2="1819.4048" y2="356.3578">
	<stop  offset="0" style="stop-color:#EEEEFA"/>
	<stop  offset="1" style="stop-color:#FFFFFF"/>
</linearGradient>
<path style="fill:url(#SVGID_00000013155587988945827980000008306176744375082671_);" d="M2827.744,1230.136v5.566
	c-2.318,0.835-4.916,1.717-7.747,2.505c-1.763,0.509-3.665,1.021-5.706,1.531c-9.416,2.271-21.246,4.36-35.952,6.029
	c-24.958,2.784-124.28,3.989-251.342,10.811c-3.665,0.186-7.33,0.416-11.042,0.602c-90.043,5.058-193.029,12.943-293,26.21
	c-3.666,0.512-7.33,1.022-10.995,1.486c-34.979,4.824-69.446,10.298-102.848,16.608c-42.261,7.932-82.714,17.07-119.966,27.74
	c-6.818,1.948-13.592,3.944-20.225,6.03c-5.753,1.81-11.365,3.617-16.934,5.475c-172.479,57.896-254.125,153.784-74.874,314.34
	c47.968,42.959,114.538,90.554,203.05,143.207c6.264,3.759,12.666,7.517,19.16,11.319H811.065V1187.78h1965.882
	C2794.854,1200.723,2811.833,1214.873,2827.744,1230.136z"/>
<linearGradient id="SVGID_00000133501344053646334760000007982556692965608846_" gradientUnits="userSpaceOnUse" x1="1274.7417" y1="696.0301" x2="1274.7417" y2="1439.7831">
	<stop  offset="0" style="stop-color:#DBDBE6"/>
	<stop  offset="1" style="stop-color:#FFFFFF"/>
</linearGradient>
<polygon style="fill:url(#SVGID_00000133501344053646334760000007982556692965608846_);" points="809.354,1227.648 
	809.354,1073.021 869.599,1073.021 869.599,969.602 939.884,969.602 939.884,1055.953 994.104,1055.953 994.104,932.452 
	983.059,932.452 983.059,912.37 1107.563,912.37 1107.563,933.456 1095.515,933.456 1095.515,1051.936 1124.633,1051.936 
	1124.633,1080.05 1177.848,1080.05 1177.848,863.171 1231.064,809.955 1249.137,828.029 1266.819,828.029 1266.819,1129.25 
	1327.455,1129.25 1327.455,1105.151 1373.642,1058.965 1410.793,1058.965 1410.793,1129.25 1448.947,1129.25 1448.947,948.517 
	1510.195,948.517 1510.195,1079.046 1560.398,1079.046 1560.398,1177.445 1626.668,1177.445 1626.668,1069.006 1740.129,1069.006 
	1740.129,1227.648 "/>
<g>
	
		<linearGradient id="SVGID_00000045617307138883561630000000222360764064780435_" gradientUnits="userSpaceOnUse" x1="926.3286" y1="1400.3485" x2="926.3286" y2="634.1947">
		<stop  offset="0" style="stop-color:#FCFCFC"/>
		<stop  offset="1" style="stop-color:#FDFDFD"/>
	</linearGradient>
	
		<rect x="912.773" y="969.602" style="fill:url(#SVGID_00000045617307138883561630000000222360764064780435_);" width="27.11" height="258.046"/>
	
		<linearGradient id="SVGID_00000164498183707806266760000004637533965441437374_" gradientUnits="userSpaceOnUse" x1="1023.7231" y1="1650.7235" x2="1023.7231" y2="762.6413">
		<stop  offset="0" style="stop-color:#FCFCFC"/>
		<stop  offset="1" style="stop-color:#FDFDFD"/>
	</linearGradient>
	<polygon style="fill:url(#SVGID_00000164498183707806266760000004637533965441437374_);" points="1051.67,912.37 1051.67,1138.621 
		992.095,1138.621 992.095,1192.841 939.884,1192.841 939.884,1227.648 1095.515,1227.648 1095.515,933.456 1107.563,933.456 
		1107.563,912.37 	"/>
	
		<linearGradient id="SVGID_00000170243841574567054630000018360369687645787827_" gradientUnits="userSpaceOnUse" x1="1181.167" y1="1650.7216" x2="1181.167" y2="762.6388">
		<stop  offset="0" style="stop-color:#FCFCFC"/>
		<stop  offset="1" style="stop-color:#FDFDFD"/>
	</linearGradient>
	<polygon style="fill:url(#SVGID_00000170243841574567054630000018360369687645787827_);" points="1231.064,809.955 
		1231.064,1166.4 1178.853,1166.4 1178.853,1080.05 1149.734,1080.05 1149.734,1156.359 1095.515,1156.359 1095.515,1227.648 
		1266.819,1227.648 1266.819,828.029 1249.137,828.029 	"/>
	
		<linearGradient id="SVGID_00000009562756681434462330000013666978102826733220_" gradientUnits="userSpaceOnUse" x1="1338.8062" y1="1650.722" x2="1338.8062" y2="762.6417">
		<stop  offset="0" style="stop-color:#FCFCFC"/>
		<stop  offset="1" style="stop-color:#FDFDFD"/>
	</linearGradient>
	<polygon style="fill:url(#SVGID_00000009562756681434462330000013666978102826733220_);" points="1373.642,1058.965 
		1373.642,1154.352 1340.256,1187.736 1314.402,1187.736 1314.402,1205.057 1266.819,1205.057 1266.819,1227.648 1410.793,1227.648 
		1410.793,1058.965 	"/>
	
		<linearGradient id="SVGID_00000039839361817644056190000001369488439078133657_" gradientUnits="userSpaceOnUse" x1="1497.3936" y1="1650.7229" x2="1497.3936" y2="762.64">
		<stop  offset="0" style="stop-color:#FCFCFC"/>
		<stop  offset="1" style="stop-color:#FDFDFD"/>
	</linearGradient>
	
		<rect x="1484.592" y="948.517" style="fill:url(#SVGID_00000039839361817644056190000001369488439078133657_);" width="25.604" height="279.132"/>
	
		<linearGradient id="SVGID_00000007398631878086299590000014431663488595122564_" gradientUnits="userSpaceOnUse" x1="1625.1621" y1="1650.7209" x2="1625.1621" y2="762.6418">
		<stop  offset="0" style="stop-color:#FCFCFC"/>
		<stop  offset="1" style="stop-color:#FDFDFD"/>
	</linearGradient>
	<polygon style="fill:url(#SVGID_00000007398631878086299590000014431663488595122564_);" points="1740.129,1069.006 
		1676.94,1069.006 1676.94,1187.486 1658.798,1187.486 1658.798,1210.914 1510.195,1210.914 1510.195,1227.648 1740.129,1227.648 	
		"/>
	
		<linearGradient id="SVGID_00000049182410802911976140000014798141220880326041_" gradientUnits="userSpaceOnUse" x1="1536.9282" y1="1650.7252" x2="1536.9282" y2="762.6397">
		<stop  offset="0" style="stop-color:#FCFCFC"/>
		<stop  offset="1" style="stop-color:#FDFDFD"/>
	</linearGradient>
	<polygon style="fill:url(#SVGID_00000049182410802911976140000014798141220880326041_);" points="1560.398,1079.046 
		1540.819,1079.046 1540.819,1191 1513.458,1218.361 1560.398,1218.361 	"/>
	
		<linearGradient id="SVGID_00000047765034412270496210000010455616889397275791_" gradientUnits="userSpaceOnUse" x1="855.5415" y1="1400.3481" x2="855.5415" y2="634.1934">
		<stop  offset="0" style="stop-color:#FCFCFC"/>
		<stop  offset="1" style="stop-color:#FDFDFD"/>
	</linearGradient>
	
		<rect x="841.484" y="1073.021" style="fill:url(#SVGID_00000047765034412270496210000010455616889397275791_);" width="28.114" height="154.627"/>
</g>
<linearGradient id="SVGID_00000052785262785466033110000012644639995390952619_" gradientUnits="userSpaceOnUse" x1="2169.2578" y1="696.0301" x2="2169.2578" y2="1439.7831">
	<stop  offset="0" style="stop-color:#DBDBE6"/>
	<stop  offset="1" style="stop-color:#FFFFFF"/>
</linearGradient>
<polygon style="fill:url(#SVGID_00000052785262785466033110000012644639995390952619_);" points="1703.871,1227.648 
	1703.871,1073.021 1764.115,1073.021 1764.115,969.602 1834.4,969.602 1834.4,1055.953 1888.62,1055.953 1888.62,932.452 
	1877.576,932.452 1877.576,912.37 2002.08,912.37 2002.08,933.456 1990.031,933.456 1990.031,1051.936 2019.149,1051.936 
	2019.149,1080.05 2072.364,1080.05 2072.364,863.171 2125.581,809.955 2143.654,828.029 2161.336,828.029 2161.336,1129.25 
	2221.972,1129.25 2221.972,1105.151 2268.158,1058.965 2305.31,1058.965 2305.31,1129.25 2343.464,1129.25 2343.464,948.517 
	2404.713,948.517 2404.713,1079.046 2454.916,1079.046 2454.916,1177.445 2521.185,1177.445 2521.185,1069.006 2634.645,1069.006 
	2634.645,1227.648 "/>
<g>
	
		<linearGradient id="SVGID_00000004504639267370142400000001863739489212454590_" gradientUnits="userSpaceOnUse" x1="1820.8457" y1="1650.7224" x2="1820.8457" y2="762.642">
		<stop  offset="0" style="stop-color:#FCFCFC"/>
		<stop  offset="1" style="stop-color:#FDFDFD"/>
	</linearGradient>
	
		<rect x="1807.291" y="969.602" style="fill:url(#SVGID_00000004504639267370142400000001863739489212454590_);" width="27.109" height="258.046"/>
	
		<linearGradient id="SVGID_00000005263387715880572070000005579291644057719946_" gradientUnits="userSpaceOnUse" x1="1918.2402" y1="1650.7235" x2="1918.2402" y2="762.6413">
		<stop  offset="0" style="stop-color:#FCFCFC"/>
		<stop  offset="1" style="stop-color:#FDFDFD"/>
	</linearGradient>
	<polygon style="fill:url(#SVGID_00000005263387715880572070000005579291644057719946_);" points="1946.187,912.37 
		1946.187,1138.621 1886.611,1138.621 1886.611,1192.841 1834.4,1192.841 1834.4,1227.648 1990.031,1227.648 1990.031,933.456 
		2002.08,933.456 2002.08,912.37 	"/>
	
		<linearGradient id="SVGID_00000111174774580143038990000012363054407162939296_" gradientUnits="userSpaceOnUse" x1="2075.6836" y1="1650.7216" x2="2075.6836" y2="762.6388">
		<stop  offset="0" style="stop-color:#FCFCFC"/>
		<stop  offset="1" style="stop-color:#FDFDFD"/>
	</linearGradient>
	<polygon style="fill:url(#SVGID_00000111174774580143038990000012363054407162939296_);" points="2125.581,809.955 
		2125.581,1166.4 2073.369,1166.4 2073.369,1080.05 2044.252,1080.05 2044.252,1156.359 1990.031,1156.359 1990.031,1227.648 
		2161.336,1227.648 2161.336,828.029 2143.654,828.029 	"/>
	
		<linearGradient id="SVGID_00000018945041529716287040000011306490438764043711_" gradientUnits="userSpaceOnUse" x1="2233.3228" y1="1650.722" x2="2233.3228" y2="762.6417">
		<stop  offset="0" style="stop-color:#FCFCFC"/>
		<stop  offset="1" style="stop-color:#FDFDFD"/>
	</linearGradient>
	<polygon style="fill:url(#SVGID_00000018945041529716287040000011306490438764043711_);" points="2268.158,1058.965 
		2268.158,1154.352 2234.773,1187.736 2208.919,1187.736 2208.919,1205.057 2161.336,1205.057 2161.336,1227.648 2305.31,1227.648 
		2305.31,1058.965 	"/>
	
		<linearGradient id="SVGID_00000054953874053633825810000011453385005080924808_" gradientUnits="userSpaceOnUse" x1="2391.9106" y1="1650.7229" x2="2391.9106" y2="762.64">
		<stop  offset="0" style="stop-color:#FCFCFC"/>
		<stop  offset="1" style="stop-color:#FDFDFD"/>
	</linearGradient>
	
		<rect x="2379.108" y="948.517" style="fill:url(#SVGID_00000054953874053633825810000011453385005080924808_);" width="25.604" height="279.132"/>
	
		<linearGradient id="SVGID_00000097478018829333938760000009771296786865378731_" gradientUnits="userSpaceOnUse" x1="2519.6787" y1="1650.7209" x2="2519.6787" y2="762.6418">
		<stop  offset="0" style="stop-color:#FCFCFC"/>
		<stop  offset="1" style="stop-color:#FDFDFD"/>
	</linearGradient>
	<polygon style="fill:url(#SVGID_00000097478018829333938760000009771296786865378731_);" points="2634.645,1069.006 
		2587.453,1069.006 2587.453,1187.486 2553.314,1187.486 2553.314,1210.914 2404.713,1210.914 2404.713,1227.648 2634.645,1227.648 
			"/>
	
		<linearGradient id="SVGID_00000119093408188193947550000002635306900693626806_" gradientUnits="userSpaceOnUse" x1="2431.4463" y1="1650.7252" x2="2431.4463" y2="762.6397">
		<stop  offset="0" style="stop-color:#FCFCFC"/>
		<stop  offset="1" style="stop-color:#FDFDFD"/>
	</linearGradient>
	<polygon style="fill:url(#SVGID_00000119093408188193947550000002635306900693626806_);" points="2454.916,1079.046 
		2435.336,1079.046 2435.336,1191 2407.977,1218.361 2454.916,1218.361 	"/>
	
		<linearGradient id="SVGID_00000006683762317170885200000000816892382412805782_" gradientUnits="userSpaceOnUse" x1="1750.0586" y1="1650.7216" x2="1750.0586" y2="762.6389">
		<stop  offset="0" style="stop-color:#FCFCFC"/>
		<stop  offset="1" style="stop-color:#FDFDFD"/>
	</linearGradient>
	
		<rect x="1736.002" y="1073.021" style="fill:url(#SVGID_00000006683762317170885200000000816892382412805782_);" width="28.113" height="154.627"/>
</g>
<path style="fill:#FAFAFA;" d="M1074.658,1218.594c0,0,79.677-36.216,95.974-25.351c16.298,10.864,90.542-13.122,143.056-2.033
	c52.515,11.087,83.298,36.834,134.002,12.19c50.703-24.645,110.46-15.194,119.515,0c9.054,15.193,21.73,8.347,79.677,0
	s54.324-4.725,130.38,15.193c76.056,19.92,126.053,19.92,126.053,19.92h-828.655V1218.594z"/>
<linearGradient id="SVGID_00000122688606646621252610000015924654405583404989_" gradientUnits="userSpaceOnUse" x1="940.0781" y1="1299.2018" x2="1638.4043" y2="1299.2018">
	<stop  offset="0" style="stop-color:#DBDBE6"/>
	<stop  offset="1" style="stop-color:#FFFFFF"/>
</linearGradient>
<path style="fill:url(#SVGID_00000122688606646621252610000015924654405583404989_);" d="M964.223,1261.451
	c0,0,18.108-66.397,112.272-33.803c94.164,32.595,114.686,72.434,251.102,67.604c136.416-4.828,196.777,60.361,252.31,59.154
	c55.532-1.208,58.499,25.351,58.499,25.351H940.078L964.223,1261.451z"/>
<linearGradient id="SVGID_00000077282995023602517450000005162342776612141721_" gradientUnits="userSpaceOnUse" x1="2005.6941" y1="1643.3165" x2="2005.6941" y2="970.7954">
	<stop  offset="0" style="stop-color:#DBDBE6"/>
	<stop  offset="1" style="stop-color:#FFFFFF"/>
</linearGradient>
<path style="fill:url(#SVGID_00000077282995023602517450000005162342776612141721_);" d="M2446.881,1238.533
	c-8.008,0.234-103.486,3.387-223.926,16.591c-3.643,0.405-7.305,0.81-11.012,1.235c-93.518,10.606-200.604,27.283-293.036,53.244
	c-3.684,1.023-7.348,2.066-10.989,3.131c-28.604,8.392-55.651,17.678-80.271,28.007c-89.153,37.42-146.529,88.259-130.769,157.327
	c22.873,100.164,140.905,208.677,293.781,311.545H1724.16c-68.558-74.052-123.23-152.45-147.169-229.846
	c-35.333-114.242,6.496-189.316,98.185-239.026c59.229-32.159,139.266-53.734,232.742-68.451c3.642-0.575,7.306-1.128,10.989-1.682
	c88.216-13.27,187.889-20.681,293.036-25.303c3.664-0.171,7.326-0.319,11.012-0.468
	C2295.751,1241.771,2371.061,1240.002,2446.881,1238.533z"/>
<path style="fill:#FAFAFA;" d="M1554.71,1224.027c0,0,56.136,17.203,94.162-13.129c38.028-30.332,132.192-27.615,173.841,0
	c41.649,27.615,92.353,12.091,117.704-1.877s74.244-9.951,135.813,4.338s61.568-6.215,123.136-4.338
	c61.569,1.877,248.085,29.492,248.085,29.492h-918.093L1554.71,1224.027z"/>
<path style="fill:#FAFAFA;" d="M2218.606,1238.514c0,0,69.958-55.64,106.278-40.25c36.321,15.39,69.34,34.6,94.104,18.779
	s64.387-17.208,75.943-3.195c11.557,14.012,52.908,5.65,74.523,3.195c58.173-6.606,81.487,21.471,81.487,21.471H2218.606z"/>
<path style="fill:#E7E7E7;" d="M1696.916,1809.613h-714.01v-78.845c0,0,34.161-62.211,90.174-75.692
	c13.184-3.174,27.603-3.663,43.044,0c10.266,2.428,21.021,6.708,32.202,13.247c99.27,58.079,184.504-13.141,251.868,71.348
	c67.407,84.53,138.351-26.899,257.683,42.383C1673.765,1791.275,1686.521,1800.498,1696.916,1809.613z"/>
<path style="fill:#FFFFFF;" d="M2025.159,555.591c0,3.49-2.83,6.32-6.321,6.32c-3.49,0-6.32-2.83-6.32-6.32
	c0-3.491,2.83-6.32,6.32-6.32C2022.329,549.271,2025.159,552.1,2025.159,555.591z"/>
<path style="fill:#FFFFFF;" d="M2311.63,912.37c0,3.491-2.829,6.321-6.32,6.321s-6.321-2.83-6.321-6.321s2.83-6.32,6.321-6.32
	S2311.63,908.879,2311.63,912.37z"/>
<path style="fill:#FFFFFF;" d="M1888.36,402.138c0,3.491-2.83,6.32-6.321,6.32c-3.49,0-6.32-2.83-6.32-6.32
	c0-3.491,2.83-6.32,6.32-6.32C1885.53,395.817,1888.36,398.647,1888.36,402.138z"/>
<path style="fill:#FFFFFF;" d="M1933.848,712.404c0,6.595-5.347,11.94-11.941,11.94s-11.941-5.346-11.941-11.94
	c0-6.596,5.347-11.941,11.941-11.941S1933.848,705.809,1933.848,712.404z"/>
<path style="fill:#FFFFFF;" d="M1338.199,214.379c0,5.456-4.424,9.879-9.881,9.879c-5.456,0-9.879-4.423-9.879-9.879
	c0-5.456,4.423-9.88,9.879-9.88C1333.775,204.499,1338.199,208.923,1338.199,214.379z"/>
<path style="fill:#FFFFFF;" d="M1983.551,329.575c-0.585,2.437-3.035,3.939-5.472,3.354c-2.438-0.585-3.939-3.035-3.354-5.473
	c0.585-2.437,3.034-3.938,5.472-3.354C1982.635,324.688,1984.137,327.138,1983.551,329.575z"/>
<path style="fill:#FFFFFF;" d="M1838.37,512.267c-1.245,5.188-6.46,8.383-11.646,7.138c-5.188-1.244-8.384-6.459-7.139-11.647
	c1.245-5.186,6.459-8.382,11.647-7.137C1836.42,501.865,1839.615,507.08,1838.37,512.267z"/>
<path style="fill:#FFFFFF;" d="M1928.226,214.379c0,3.491-2.83,6.32-6.32,6.32s-6.32-2.83-6.32-6.32c0-3.491,2.83-6.321,6.32-6.321
	S1928.226,210.889,1928.226,214.379z"/>
<path style="fill:#FFFFFF;" d="M2007.217,95.994c-0.586,2.438-3.035,3.939-5.473,3.354c-2.438-0.584-3.939-3.035-3.354-5.472
	c0.585-2.438,3.035-3.939,5.473-3.354C2006.3,91.106,2007.802,93.556,2007.217,95.994z"/>
<path style="fill:#FFFFFF;" d="M1833.391,847.176c-0.584,2.438-3.034,3.939-5.472,3.354c-2.438-0.586-3.938-3.036-3.354-5.473
	c0.585-2.438,3.035-3.939,5.473-3.354C1832.475,842.289,1833.976,844.738,1833.391,847.176z"/>
<path style="fill:#FFFFFF;" d="M1766.037,97.189c-1.244,5.188-6.459,8.383-11.646,7.138c-5.188-1.246-8.383-6.46-7.137-11.647
	c1.245-5.188,6.459-8.383,11.646-7.138C1764.087,86.787,1767.283,92.002,1766.037,97.189z"/>
<path style="fill:#FFFFFF;" d="M2214.563,736.286c0,6.595-5.346,11.941-11.94,11.941s-11.94-5.346-11.94-11.941
	c0-6.595,5.346-11.941,11.94-11.941S2214.563,729.691,2214.563,736.286z"/>
<path style="fill:#FFFFFF;" d="M1658.84,286.726c0,6.595-5.347,11.941-11.94,11.941c-6.596,0-11.941-5.346-11.941-11.941
	c0-6.595,5.346-11.941,11.941-11.941C1653.493,274.785,1658.84,280.131,1658.84,286.726z"/>
<path style="fill:#FFFFFF;" d="M2168.598,106.875c0,6.595-5.347,11.941-11.941,11.941s-11.94-5.346-11.94-11.941
	c0-6.595,5.346-11.941,11.94-11.941S2168.598,100.28,2168.598,106.875z"/>
<path style="fill:#FFFFFF;" d="M2133.63,396.876c-0.585,2.437-3.035,3.938-5.473,3.354c-2.438-0.586-3.938-3.036-3.354-5.473
	c0.585-2.437,3.035-3.939,5.473-3.353C2132.713,391.989,2134.215,394.44,2133.63,396.876z"/>
<path style="fill:#FFFFFF;" d="M2435.859,847.176c-0.586,2.438-3.036,3.939-5.473,3.354c-2.438-0.586-3.938-3.036-3.354-5.473
	c0.584-2.438,3.035-3.939,5.472-3.354C2434.941,842.289,2436.443,844.738,2435.859,847.176z"/>
<path style="fill:#FFFFFF;" d="M1308.804,650.613c-0.585,2.438-3.035,3.939-5.473,3.354c-2.437-0.586-3.938-3.035-3.353-5.473
	c0.584-2.438,3.034-3.939,5.471-3.354C1307.888,645.727,1309.389,648.176,1308.804,650.613z"/>
<path style="fill:#FFFFFF;" d="M2659.895,804.694c-0.584,2.437-3.035,3.939-5.472,3.354c-2.437-0.585-3.938-3.035-3.354-5.473
	c0.586-2.438,3.036-3.938,5.473-3.354C2658.979,799.807,2660.479,802.257,2659.895,804.694z"/>
<path style="fill:#FFFFFF;" d="M1607.054,687.444c0,6.595-5.347,11.941-11.941,11.941s-11.941-5.347-11.941-11.941
	c0-6.595,5.347-11.94,11.941-11.94S1607.054,680.85,1607.054,687.444z"/>
<path style="fill:#FFFFFF;" d="M1611.466,464.615c-0.585,2.437-3.035,3.939-5.472,3.354c-2.438-0.585-3.939-3.036-3.354-5.473
	c0.584-2.437,3.034-3.939,5.472-3.354C1610.549,459.728,1612.051,462.179,1611.466,464.615z"/>
<polygon style="fill:#FAFAFA;" points="2827.728,0.001 2827.728,1809.613 -0.001,1809.613 -0.001,0.001 1178.654,0.001 
	1178.654,1340.741 1471.69,1340.741 1471.69,0.001 1482.681,0.001 1482.681,1340.741 1775.718,1340.741 1775.718,0.001 
	1786.729,0.001 1786.729,1340.741 2079.766,1340.741 2079.766,0.001 2090.755,0.001 2090.755,1340.741 2383.792,1340.741 
	2383.792,0.001 2394.803,0.001 2394.803,1340.741 2687.818,1340.741 2687.818,0.001 2698.829,0.001 2698.829,1340.741 
	2778.339,1340.741 2778.339,0.001 "/>
<g>
	<rect x="1552.494" y="0.001" style="fill:#EBF3F7;" width="4.509" height="525.05"/>
	<path style="fill:#EBF3F7;" d="M1389.929,573.19c0,0,80.551-67.011,164.82-67.011c84.269,0,164.82,67.011,164.82,67.011H1389.929z"
		/>
</g>
<g>
	<rect x="1005.961" y="0.001" style="fill:#EBF3F7;" width="4.509" height="525.05"/>
	<path style="fill:#EBF3F7;" d="M843.395,573.19c0,0,80.551-67.011,164.82-67.011c84.269,0,164.82,67.011,164.82,67.011H843.395z"/>
</g>
<rect x="-0.001" y="1610.681" style="fill:#EEF6FA;" width="2827.728" height="209.319"/>
<g>
	
		<linearGradient id="SVGID_00000173137274987371574470000001181176349123020692_" gradientUnits="userSpaceOnUse" x1="2936.031" y1="-371.3643" x2="3261.3088" y2="-371.3643" gradientTransform="matrix(0.9184 0.3957 -0.3957 0.9184 -2037.0992 -177.3933)">
		<stop  offset="0" style="stop-color:#FF9F55"/>
		<stop  offset="1" style="stop-color:#FFD255"/>
	</linearGradient>
	<path style="fill:url(#SVGID_00000173137274987371574470000001181176349123020692_);" d="M1094.297,729.118
		c2.025-13.044,2.149-26.133,0.532-38.91l22.971-14.955l-11.005-27.669l-11.004-27.67l-26.968,4.906
		c-7.601-10.397-16.68-19.826-27.11-27.915l5.663-26.796l-27.347-11.783l-27.346-11.784l-15.588,22.518
		c-13.044-2.025-26.131-2.15-38.908-0.533l-14.957-22.97l-27.668,11.005l-27.669,11.004l4.905,26.968
		c-10.398,7.6-19.826,16.68-27.916,27.109l-26.795-5.662l-11.784,27.346l-11.783,27.347l22.519,15.587
		c-2.025,13.044-2.149,26.132-0.532,38.91l-22.971,14.955l11.005,27.669l11.004,27.67l26.968-4.906
		c7.601,10.398,16.679,19.826,27.109,27.915l-5.662,26.796l27.347,11.783l27.346,11.784l15.588-22.52
		c13.043,2.025,26.131,2.15,38.908,0.532l14.955,22.971l27.67-11.004l27.669-11.005l-4.905-26.967
		c10.398-7.601,19.825-16.681,27.915-27.109l26.796,5.662l11.784-27.346l11.783-27.347L1094.297,729.118z M914.377,803.513
		c-52.921-22.806-77.336-84.193-54.531-137.113c22.804-52.922,84.191-77.336,137.113-54.533
		c52.92,22.805,77.336,84.192,54.531,137.113C1028.687,801.901,967.299,826.315,914.377,803.513z"/>
</g>
<g>
	<polygon style="fill:#B8D6FF;" points="314.971,757.513 309.483,757.513 326.226,723.673 331.713,723.673 	"/>
	<rect x="138.464" y="754.413" style="fill:#B8D6FF;" width="265.613" height="4.209"/>
	<rect x="138.464" y="768.062" style="fill:#B8D6FF;" width="141.886" height="24.362"/>
	<rect x="309.483" y="710.28" style="fill:#B8D6FF;" width="73.93" height="13.393"/>
	<rect x="309.483" y="704.03" style="fill:#B8D6FF;" width="73.93" height="2.52"/>
</g>
<g>
	
		<linearGradient id="SVGID_00000176758111163292309340000016171596389578022793_" gradientUnits="userSpaceOnUse" x1="486.823" y1="1706.15" x2="486.823" y2="1549.9432">
		<stop  offset="0" style="stop-color:#FF9F55"/>
		<stop  offset="1" style="stop-color:#FFD255"/>
	</linearGradient>
	<path style="fill:url(#SVGID_00000176758111163292309340000016171596389578022793_);" d="M782.367,1719.069h-550.89
		c-22.201,0-40.198-17.997-40.198-40.198v-65.252c0-22.2,17.998-40.197,40.198-40.197h550.89V1719.069z"/>
	<path style="fill:#FF9F55;" d="M876.977,1588.418v115.666h9.661v14.993H487.337c-22.201,0-40.198-17.997-40.198-40.197v-65.256
		c0-22.201,17.997-40.197,40.198-40.197h399.302v14.991H876.977z"/>
	<path style="fill:#EFF7FE;" d="M876.969,1704.078H516.81c-22.2,0-40.197-17.997-40.197-40.198v-35.27
		c0-22.201,17.997-40.198,40.197-40.198h360.158V1704.078z"/>
	
		<linearGradient id="SVGID_00000176025147950936617570000009451512969803655588_" gradientUnits="userSpaceOnUse" x1="481.3103" y1="1353.9451" x2="481.3103" y2="1570.1816">
		<stop  offset="0" style="stop-color:#40D5E6"/>
		<stop  offset="1" style="stop-color:#5577FF"/>
	</linearGradient>
	<path style="fill:url(#SVGID_00000176025147950936617570000009451512969803655588_);" d="M808.102,1573.416H205.025
		c-27.894,0-50.507-22.612-50.507-50.507v-68.367c0-27.895,22.613-50.507,50.507-50.507h603.078V1573.416z"/>
	<path style="fill:#5284FC;" d="M915.079,1421.475v134.516h8.321v17.437H595.397c-27.893,0-50.507-22.613-50.507-50.508v-68.373
		c0-27.894,22.613-50.507,50.507-50.507H923.4v17.436H915.079z"/>
	<path style="fill:#EFF7FE;" d="M915.071,1555.982h-294.29c-27.893,0-50.507-22.612-50.507-50.507v-33.501
		c0-27.894,22.613-50.507,50.507-50.507h294.29V1555.982z"/>
	
		<linearGradient id="SVGID_00000124881693101653327290000001580566954635930030_" gradientUnits="userSpaceOnUse" x1="630.126" y1="1364.3192" x2="630.126" y2="1202.6539">
		<stop  offset="0" style="stop-color:#FF9F55"/>
		<stop  offset="1" style="stop-color:#FFD255"/>
	</linearGradient>
	<path style="fill:url(#SVGID_00000124881693101653327290000001580566954635930030_);" d="M373.613,1404.002h458.365
		c30.189,0,54.66-24.473,54.66-54.66v-98.343c0-30.187-24.472-54.659-54.66-54.659H373.613V1404.002z"/>
	<path style="fill:#FF9F55;" d="M291.497,1217.721v164.917h-8.385v21.376h326.797c30.188,0,54.66-24.472,54.66-54.659v-98.349
		c0-30.188-24.472-54.66-54.66-54.66H283.112v21.375H291.497z"/>
	<path style="fill:#EFF7FE;" d="M291.505,1382.629h288.99c30.007,0,54.332-24.326,54.332-54.332v-56.252
		c0-30.006-24.325-54.332-54.332-54.332h-288.99V1382.629z"/>
	
		<linearGradient id="SVGID_00000051367007091817413970000015267785976111913404_" gradientUnits="userSpaceOnUse" x1="445.1044" y1="929.66" x2="445.1044" y2="1111.2786">
		<stop  offset="0" style="stop-color:#40D5E6"/>
		<stop  offset="1" style="stop-color:#5577FF"/>
	</linearGradient>
	<path style="fill:url(#SVGID_00000051367007091817413970000015267785976111913404_);" d="M716.852,1196.29H230.82
		c-31.736,0-57.463-25.727-57.463-57.463v-92.737c0-31.734,25.727-57.462,57.463-57.462h486.031V1196.29z"/>
	<path style="fill:#5284FC;" d="M803.844,1010.009v164.917h8.885v21.376h-346.65c-31.735,0-57.463-25.728-57.463-57.463v-92.742
		c0-31.735,25.728-57.463,57.463-57.463h346.65v21.375H803.844z"/>
	<path style="fill:#EFF7FE;" d="M803.836,1174.917H496.002c-31.603,0-57.224-25.621-57.224-57.224v-50.469
		c0-31.604,25.621-57.223,57.224-57.223h307.834V1174.917z"/>
	
		<linearGradient id="SVGID_00000043424719965073625970000011577315940230559931_" gradientUnits="userSpaceOnUse" x1="582.1877" y1="840.1069" x2="582.1877" y2="985.3738">
		<stop  offset="0" style="stop-color:#40D5E6"/>
		<stop  offset="1" style="stop-color:#5577FF"/>
	</linearGradient>
	<path style="fill:url(#SVGID_00000043424719965073625970000011577315940230559931_);" d="M853.935,988.569H346.108
		c-19.698,0-35.667-15.969-35.667-35.668v-85.816c0-19.699,15.969-35.667,35.667-35.667h507.827V988.569z"/>
	<path style="fill:#5284FC;" d="M940.928,847.599v124.803h8.885v16.177H581.366c-19.698,0-35.667-15.969-35.667-35.667V867.09
		c0-19.698,15.969-35.668,35.667-35.668h368.446v16.177H940.928z"/>
	<path style="fill:#EFF7FE;" d="M940.919,972.394H608.467c-19.698,0-35.667-15.97-35.667-35.668V883.26
		c0-19.698,15.969-35.668,35.667-35.668h332.452V972.394z"/>
</g>
<g>
	
		<linearGradient id="SVGID_00000116236539734476192040000006670634465125919911_" gradientUnits="userSpaceOnUse" x1="3138.1094" y1="-631.3208" x2="3287.2319" y2="-631.3208" gradientTransform="matrix(0.9184 0.3957 -0.3957 0.9184 -2037.0992 -177.3933)">
		<stop  offset="0" style="stop-color:#FF9F55"/>
		<stop  offset="1" style="stop-color:#FFD255"/>
	</linearGradient>
	<path style="fill:url(#SVGID_00000116236539734476192040000006670634465125919911_);" d="M1226.784,523.879
		c0.929-5.979,0.985-11.979,0.245-17.837l10.53-6.857l-5.045-12.685l-5.045-12.685l-12.363,2.25
		c-3.483-4.768-7.646-9.09-12.428-12.799l2.596-12.284l-12.537-5.402l-12.536-5.401l-7.146,10.323
		c-5.979-0.929-11.979-0.985-17.838-0.244l-6.855-10.53l-12.686,5.045l-12.685,5.045l2.249,12.363
		c-4.767,3.483-9.089,7.646-12.798,12.428l-12.284-2.596l-5.402,12.536l-5.402,12.537l10.324,7.146
		c-0.929,5.979-0.985,11.98-0.244,17.838l-10.531,6.855l5.045,12.685l5.045,12.685l12.363-2.248
		c3.484,4.767,7.647,9.089,12.429,12.797l-2.597,12.285l12.538,5.401l12.536,5.402l7.146-10.323
		c5.979,0.929,11.979,0.985,17.837,0.244l6.856,10.531l12.685-5.046l12.685-5.045l-2.249-12.362
		c4.768-3.485,9.09-7.647,12.798-12.43l12.285,2.597l5.402-12.537l5.401-12.536L1226.784,523.879z M1144.302,557.984
		c-24.261-10.454-35.454-38.597-24.999-62.858c10.454-24.262,38.597-35.454,62.857-25c24.262,10.454,35.455,38.598,25.001,62.858
		C1196.706,557.247,1168.563,568.44,1144.302,557.984z"/>
</g>
<g>
	<g>
		<path style="fill:#D0E5F5;" d="M803.277,464.19H677.021c-5.335,0-9.661-4.325-9.661-9.661v-19.498
			c0-5.336,4.326-9.661,9.661-9.661h126.257c5.335,0,9.661,4.325,9.661,9.661v19.498C812.938,459.865,808.612,464.19,803.277,464.19
			z"/>
	</g>
</g>
<g>
	<g>
		<path style="fill:#D0E5F5;" d="M803.277,536.876H677.021c-5.335,0-9.661-4.326-9.661-9.662v-19.498
			c0-5.335,4.326-9.661,9.661-9.661h126.257c5.335,0,9.661,4.326,9.661,9.661v19.498
			C812.938,532.55,808.612,536.876,803.277,536.876z"/>
	</g>
</g>
<g>
	<g>
		<path style="fill:#D0E5F5;" d="M803.277,609.562H677.021c-5.335,0-9.661-4.326-9.661-9.663v-19.497
			c0-5.337,4.326-9.661,9.661-9.661h126.257c5.335,0,9.661,4.324,9.661,9.661v19.497
			C812.938,605.235,808.612,609.562,803.277,609.562z"/>
	</g>
</g>
<g>
	<g>
		<g>
			<path style="fill:#D0E5F5;" d="M596.973,338.78c-32.383-90.547-118.919-146.162-210.126-143.42
				c-22.08,0.663-44.433,4.748-66.369,12.592c-66.433,23.762-114.072,76.679-133.643,139.194
				c-13.564,43.327-13.65,91.262,2.819,137.308c1.635,4.578,3.415,9.084,5.324,13.483c8.662,19.943,20.029,37.984,33.529,53.842
				c56.6,66.543,150.519,94.663,237.647,63.507C578.633,575.055,637.199,451.263,596.973,338.78z M447.922,564.31
				c-65.323,23.364-135.734,2.277-178.171-47.604c-10.115-11.89-18.645-25.417-25.131-40.374c-1.433-3.301-2.77-6.676-3.999-10.111
				c-12.347-34.52-12.277-70.46-2.109-102.936c14.672-46.878,50.384-86.554,100.193-104.362c16.441-5.881,33.203-8.941,49.757-9.446
				c68.373-2.064,133.263,39.636,157.546,107.525C576.167,441.337,532.253,534.146,447.922,564.31z"/>
		</g>
	</g>
	<g>
		<g>
			<path style="fill:#78B0DE;" d="M238.511,363.284l-51.676-16.138c19.57-62.516,67.21-115.432,133.643-139.194
				c21.936-7.844,44.289-11.928,66.369-12.592l1.615,54.116c-16.555,0.504-33.316,3.564-49.757,9.446
				C288.895,276.73,253.183,316.406,238.511,363.284z"/>
		</g>
	</g>
	<g>
		<g>
			<path style="fill:#98C3E6;" d="M244.619,476.332l-49.641,21.605c-1.909-4.399-3.689-8.905-5.324-13.483
				c-16.47-46.046-16.383-93.981-2.819-137.308l51.676,16.138c-10.168,32.477-10.238,68.417,2.109,102.936
				C241.85,469.656,243.186,473.031,244.619,476.332z"/>
		</g>
	</g>
	<g>
		<g>
			<path style="fill:#B5D2EB;" d="M228.507,551.779c-13.5-15.857-24.867-33.898-33.529-53.842l49.641-21.605
				c6.486,14.957,15.017,28.484,25.131,40.374L228.507,551.779z"/>
		</g>
	</g>
</g>
<g>
	<g>
		<g>
			
				<linearGradient id="SVGID_00000163068984413983952090000016662755005952776865_" gradientUnits="userSpaceOnUse" x1="1258.5415" y1="847.6146" x2="1280.0779" y2="913.9747">
				<stop  offset="0" style="stop-color:#FF9F55"/>
				<stop  offset="1" style="stop-color:#FFD255"/>
			</linearGradient>
			<path style="fill:url(#SVGID_00000163068984413983952090000016662755005952776865_);" d="M1256.273,921.7l-48.578-42.35
				c-3.984-3.474-4.398-9.519-0.926-13.502c3.473-3.982,9.517-4.395,13.501-0.925l34.353,29.949l48.988-54.641
				c3.527-3.936,9.578-4.266,13.512-0.738c3.936,3.528,4.265,9.578,0.738,13.514L1256.273,921.7z"/>
		</g>
	</g>
</g>
<g>
	<path style="fill:#EBDDDD;" d="M1294.237,1649.207c0,0,7.517,11.374,13.071,15.342c5.556,3.969,34.917,20.104,39.943,20.898
		c5.026,0.793,33.49,5.659,33.41,10.148c-0.163,9.131-20.57,10.002-47.021,8.68c-26.453-1.323-63.902,2.239-67.342-0.898
		c-3.438-3.137-4.225-16.343-1.314-29.305c2.91-12.961,1.588-24.469,1.588-24.469L1294.237,1649.207z"/>
	<path style="fill:#EBDDDD;" d="M1213.402,1705.02c-1.35,6.784-49.166,6.945-54.324-2.315s-45.355-37.688-47.211-48.535
		c-0.811-4.729,0.87-9.93,3.949-16.43c3.983-8.403,10.689-16.657,18.736-20.537c14.792-7.134,24.49,23.673,24.49,23.673
		s2.245,10.713,4.364,14.419c2.118,3.697,17.99,31.742,24.339,33.854C1194.095,1691.266,1215.681,1693.568,1213.402,1705.02z"/>
	<path style="fill:#EEA987;" d="M1089.018,1316.672c0,0,27.621,3.818,36.402,0.081c8.781-3.735,55.67,28.039,55.588,33.001
		c-0.082,4.963-1.543,7.102-1.543,7.102l-100.834-21.915L1089.018,1316.672z"/>
	<path style="fill:#EB4747;" d="M1251.439,1426.828c0,0-24.455,55.018-41.908,94.283c-2.932,6.609-5.67,12.768-8.061,18.142
		c-2.798,6.299-5.122,11.517-6.721,15.122c-11.11,24.995-31.146,86.496-31.146,86.496s-30.947-5.751-32.139-23.212
		c0,0,22.82-38.289,22.82-64.868c0-26.588,3.566-104.891,28.962-121.818C1214.216,1410.329,1234.326,1406.421,1251.439,1426.828z"/>
	<path style="fill:#EB4747;" d="M1025.325,1322.254c0,0,5.158,5.159,9.522,6.349c4.365,1.191,77.374,6.746,111.101,17.855
		c33.727,11.11,78.563,18.252,86.896,27.775c8.333,9.522,22.22,61.898,21.823,71.819c-0.396,9.919,38.053,190.108,41.795,203.154
		c1.984,6.915-31.743,4.894-31.743,4.894s-45.249-112.427-54.095-130.675c-16.253-33.527-17.062-74.597-23.014-80.945
		s-72.216-20.633-110.307-20.633c-38.092,0-123.401,3.174-132.527-1.983c-9.126-5.158-66.264-42.854-42.456-93.245
		C926.128,1276.227,1025.325,1322.254,1025.325,1322.254z"/>
	<path style="fill:#E8734D;" d="M1114.351,1019.475c0,0-32.171,87.653-53.385,114.229c-21.213,26.575-12.557-72.033-12.557-72.033
		S1085.212,1004.322,1114.351,1019.475z"/>
	<path style="fill:#E8734D;" d="M1128.599,1013.661c0,0,19.363-65.245-54.693-69.483c-73.315-4.196-19.826,80.649-62.593,117.492
		c-18.569,15.997-33.919,32.869-39.863,53.15c0,0-10.49,29.84,1.961,65.438C990.226,1228.336,1075.626,986.683,1128.599,1013.661z"
		/>
	<path style="fill:#EEA886;" d="M1089.857,960.906c14.133,3.379,43.005,19.379,37.027,57.7c0,0-4.011,9.633-8.702,16.754
		s-4.39,32.227-6.551,32.833c-2.16,0.605-10.142-0.14-10.142-0.14s-15.459,22.837-24.243,20.048
		c-8.785-2.789-40.265-19.442-46.921-55.382S1032.787,947.264,1089.857,960.906z"/>
	<path style="fill:#EEA886;" d="M1068.639,1073.131c0,0-2.116,3.215-4.878,8.099c-1.411,2.494-2.989,5.422-4.537,8.573
		c-4.28,8.73-8.348,19.201-8.046,27.051c0,0-21.53,1.088-28.944-31.05c0,0,15.299-27.854,11.926-48.421
		C1030.786,1016.822,1068.639,1073.131,1068.639,1073.131z"/>
	<path style="fill:#E8734D;" d="M1126.885,1018.606c0,0-27.109,8.845-50.469,5.429c-23.359-3.415-44.448,15.591-44.448,15.591
		s-21.71-52.847,15.94-79.524C1085.559,933.425,1144.292,976.977,1126.885,1018.606z"/>
	<path style="fill:#EEA886;" d="M1067.381,1020.289c1.142-4.383-1.799-12.313-10.648-8.444c-8.85,3.868-5.282,27.323,1.144,26.995
		C1064.303,1038.511,1066.2,1024.818,1067.381,1020.289z"/>
	<path style="fill:#A77860;" d="M1063.761,1081.229c-1.411,2.494-2.989,5.422-4.537,8.573
		c-14.813-16.815-19.881-33.481-19.881-33.481C1046.994,1068.731,1063.761,1081.229,1063.761,1081.229z"/>
	<path style="fill:#214361;" d="M1086.491,1202.34c-9.666,17.883-21.22,15.691-24.662,29.977
		c-3.441,14.286,0.415,16.722-13.338,36.824c-2.546,3.724-4.944,7.884-7.157,12.198c-0.259,0.511-0.525,1.021-0.777,1.54
		c-1.222,2.428-2.376,4.892-3.472,7.342c-2.021,4.529-3.827,9.001-5.374,13.109c-4.049,10.717-6.388,18.926-6.388,18.926
		s-75.786,24.596-123.002,4.359c0,0,28.171-49.591,40.473-65.861c12.302-16.269,30.154-109.116,32.931-128.561
		c2.783-19.443,29.028-57.266,51.248-56.473l29.284,20.559c0,0,19.591,51.65,25.149,59.585
		C1086.958,1163.807,1096.299,1184.206,1086.491,1202.34z"/>
	<path style="fill:#1B374F;" d="M1040.736,1282.515l-0.18,0.364c-1.222,2.428-2.376,4.892-3.472,7.342
		c-2.021,4.529-3.827,9.001-5.374,13.109c-18.659-2.762-53.78-28.764-53.78-28.764l43.959-72.752l-18.667,59.555
		c5.676,1.606,20.479,9.252,22.331,12.457C1027.404,1277.038,1040.736,1282.515,1040.736,1282.515z"/>
	<path style="fill:#214361;" d="M1025.729,1093.092c11.567,4.135,32.066,21.511,19.27,52.195
		c-12.795,30.686-20.201,51.886-24.699,59.538c-4.497,7.651-30.684,60.61-30.684,60.61s25.922,7.617,37.826,15.553
		c11.903,7.937,67.588,32.065,67.588,32.065l-13.757,22.89c0,0-117.317-23.829-126.311-32.911
		c-8.994-9.082,0.264-54.845,3.703-72.832c3.439-17.988,21.691-88.352,21.956-96.288
		C980.885,1125.977,995.564,1082.311,1025.729,1093.092z"/>
	<path style="fill:#214361;" d="M1032.437,1323.627c0,0-7.935,124.821-15.274,128.337c-9.686,4.64-87.341,3.454-108.065-22.698
		c-20.725-26.153-23.489-73.989-6.775-102.65C919.036,1297.955,1032.437,1323.627,1032.437,1323.627z"/>
	<path style="fill:#AB3434;" d="M1209.531,1521.111c-2.932,6.609-5.67,12.768-8.061,18.142c-8.993-28.919-8.253-77.252-8.253-77.252
		C1198.621,1495.701,1209.368,1520.727,1209.531,1521.111z"/>
</g>
<path style="fill:#254380;" d="M1127.819,980.713c0,0-17.525,35.685-99.677,49.77l-9.086-18.263c0,0,79.991-3.108,106.866-44.582
	L1127.819,980.713z"/>
<g>
	<path style="fill:#254380;" d="M982.919,1048.373c-8.05,4.528-7.044,26.162-7.044,26.162h7.044h7.043
		C989.962,1074.535,990.969,1052.901,982.919,1048.373z"/>
	<g>
		<rect x="981.619" y="986.993" style="fill:#254380;" width="2.6" height="67.796"/>
	</g>
	<polygon style="fill:#1A2F59;" points="956.947,991.446 1069.286,1033.354 1170.576,942.276 1054.359,912.37 	"/>
</g>
<polygon style="fill:#323657;" points="1354.678,1261.53 1185.95,1261.53 1185.833,1247.348 1354.562,1246.069 "/>
<rect x="1289.346" y="1175.015" transform="matrix(0.2924 -0.9563 0.9563 0.2924 -161.7031 2146.1565)" style="fill:#323657;" width="160.214" height="14.674"/>
<g>
	<polygon style="fill:#918783;" points="1128.39,1699.741 1124.787,1709.877 972.545,1662.705 979.235,1640.893 	"/>
	<g>
		<rect x="1652.805" y="1286.742" style="fill:#706865;" width="14.394" height="443.481"/>
	</g>
	<g>
		
			<rect x="1174.217" y="1261.53" transform="matrix(-1 -1.224647e-16 1.224647e-16 -1 2930.0762 2548.2764)" style="fill:#B59074;" width="581.643" height="25.216"/>
	</g>
	<g>
		
			<rect x="1255.161" y="1286.746" transform="matrix(-1 -1.224647e-16 1.224647e-16 -1 2524.7178 3016.9736)" style="fill:#706865;" width="14.396" height="443.481"/>
	</g>
	<rect x="965.985" y="1439.037" style="fill:#918783;" width="17.304" height="218.415"/>
	<path style="fill:#323657;" d="M836.449,1415.391h249.571c12.474,0,22.585,10.112,22.585,22.585v7.366H836.449V1415.391z"/>
	<path style="fill:#323657;" d="M978.066,1319.857c0,0-6.86,27.748,25.445,34.054c32.306,6.306,72.034,14.354,72.034,64.19H963.504
		L978.066,1319.857z"/>
	<path style="fill:#323657;" d="M836.449,1445.342l-95.146-399.881c0,0,172.01-26.872,192.504,50.372
		c20.492,77.243,54.204,306.685,95.19,320.872C1069.983,1430.893,836.449,1445.342,836.449,1445.342z"/>
	<path style="fill:#BFB2AC;" d="M1142.617,1713.84c0,7.857-6.37,14.227-14.228,14.227s-14.228-6.369-14.228-14.227
		c0-7.858,6.37-14.229,14.228-14.229S1142.617,1705.981,1142.617,1713.84z"/>
	<polygon style="fill:#918783;" points="822.222,1699.741 825.825,1709.877 978.066,1662.705 970.771,1642.182 	"/>
	<polygon style="fill:#918783;" points="1021.125,1708.793 1021.125,1720.582 972.545,1662.705 979.235,1640.893 	"/>
	<path style="fill:#BFB2AC;" d="M1022.334,1713.84c0,7.857-6.37,14.227-14.228,14.227c-7.858,0-14.227-6.369-14.227-14.227
		c0-7.858,6.369-14.229,14.227-14.229C1015.964,1699.611,1022.334,1705.981,1022.334,1713.84z"/>
	<path style="fill:#BFB2AC;" d="M836.449,1713.84c0,7.857-6.37,14.227-14.227,14.227c-7.857,0-14.228-6.369-14.228-14.227
		c0-7.858,6.37-14.229,14.228-14.229C830.079,1699.611,836.449,1705.981,836.449,1713.84z"/>
	<g>
		<path style="fill:#36572B;" d="M1583.662,1086.294c28.113,0,50.904-22.792,50.904-50.905c0-7.59-1.658-14.783-4.641-21.252
			c-8.051-17.503-25.734-29.652-46.264-29.652c-28.112,0-50.903,22.792-50.903,50.904c0,9.653,2.686,18.682,7.357,26.373
			C1549.037,1076.464,1565.202,1086.294,1583.662,1086.294z"/>
		<path style="fill:#45613C;" d="M1635.361,1081.729c19.671,0,35.621-15.95,35.621-35.621c0-1.135-0.051-2.258-0.157-3.366
			c-1.696-18.096-16.929-32.256-35.464-32.256c-19.671,0-35.622,15.951-35.622,35.622c0,12.471,6.412,23.447,16.115,29.809
			C1621.46,1079.592,1628.161,1081.729,1635.361,1081.729z"/>
		<path style="fill:#925E2E;" d="M1582.833,1038.066c0,0-2.838,23.642-3.783,55.794c-0.946,32.152,24.588,32.152,24.588,32.152
			v117.773h17.724c0,0-0.421-120.131,8.406-129.798c8.826-9.668,8.826-55.481,8.826-55.481l-5.044-2.942
			c0,0,7.566,54.221-26.899,62.206c-34.466,7.986-21.437-77.337-21.437-77.337L1582.833,1038.066z"/>
		<path style="fill:#48753A;" d="M1571.053,1043.585c29.223-5.459,48.471-18.094,58.873-29.448
			c-8.051-17.503-25.734-29.652-46.264-29.652c-28.112,0-50.903,22.792-50.903,50.904c0,9.653,2.686,18.682,7.357,26.373
			C1541.516,1054.84,1549.094,1047.684,1571.053,1043.585z"/>
		<path style="fill:#538742;" d="M1645.764,1055.88c11.809-3.404,19.81-8.076,25.062-13.139
			c-1.696-18.096-16.929-32.256-35.464-32.256c-19.671,0-35.622,15.951-35.622,35.622c0,12.471,6.412,23.447,16.115,29.809
			C1619.467,1069.095,1627.638,1061.1,1645.764,1055.88z"/>
		<polygon style="fill:#877670;" points="1665.816,1189.037 1546.031,1189.037 1552.205,1211.266 1658.407,1211.266 		"/>
		<polygon style="fill:#876455;" points="1650.851,1211.267 1561.949,1211.267 1574.298,1261.552 1642.207,1261.552 		"/>
		<path style="fill:#538742;" d="M1638.594,1014.957l3.071,0.947c0,0,4.835-13.136,5.149-14.922
			C1647.13,999.196,1638.594,1014.957,1638.594,1014.957z"/>
		<path style="fill:#538742;" d="M1667.62,1015.904l-15.236,4.623c0,0,0.104,1.365,2.102,1.365
			C1656.481,1021.893,1667.62,1015.904,1667.62,1015.904z"/>
		<path style="fill:#538742;" d="M1662.366,1047.848h-3.888c0,0,0.734,5.778,3.888,9.457
			C1665.519,1060.982,1662.366,1047.848,1662.366,1047.848z"/>
		<path style="fill:#48753A;" d="M1568.846,974.923c-1.575,1.156,5.569,18.599,5.569,18.599h3.573
			C1577.988,993.521,1570.422,973.767,1568.846,974.923z"/>
		<path style="fill:#48753A;" d="M1585.449,989.214c0.63-4.73-3.048-12.715-3.048-12.715v11.978
			C1582.401,988.477,1584.818,993.942,1585.449,989.214z"/>
		<path style="fill:#48753A;" d="M1557.288,1057.954c2.206-1.806,2.312-17.672,2.312-17.672l-3.468,1.261
			C1556.132,1041.543,1555.081,1059.76,1557.288,1057.954z"/>
		<path style="fill:#715346;" d="M1621.4,1211.267h-59.451l12.349,50.285h19.468C1582.764,1221.088,1621.4,1211.267,1621.4,1211.267
			z"/>
	</g>
	<g>
		<path style="fill:#9E633A;" d="M1577.422,1261.552c4.879-2.032,12.757-25.065,16.549-36.99c1.344-4.232,2.175-7.065,2.175-7.065
			h-44.605c3.854,27.534,13.216,44.056,13.216,44.056H1577.422z"/>
		<path style="fill:#97A43C;" d="M1581.002,1203.778c0-1.603,7.159-8.311,10.738-12.691c3.58-4.38-1.376-12.691-1.376-12.691
			c-15.971,6.609-13.218,25.383-13.218,25.383S1581.002,1205.381,1581.002,1203.778z"/>
		<path style="fill:#97A43C;" d="M1571.915,1204.49h1.929c0,0,1.377-32.427-10.464-36.832c-11.84-4.406-11.84-13.218-11.84-13.218
			s-3.58,12.115,2.203,18.449c5.782,6.333,12.391,13.768,11.289,19.824C1563.931,1198.772,1571.915,1204.49,1571.915,1204.49z"/>
		<path style="fill:#82522F;" d="M1593.971,1224.562c1.344-4.232,2.175-7.065,2.175-7.065h-44.605
			c3.854,27.534,13.216,44.056,13.216,44.056h2.912C1567.126,1235.77,1584.103,1227.302,1593.971,1224.562z"/>
		<polygon style="fill:#C67B47;" points="1596.137,1203.778 1551.201,1203.778 1548.644,1217.496 1597.964,1217.496 		"/>
	</g>
	<g>
		<g>
			
				<linearGradient id="SVGID_00000093860572365308275610000008249264526700999554_" gradientUnits="userSpaceOnUse" x1="1427.1201" y1="1207.5822" x2="1427.1201" y2="1117.203">
				<stop  offset="0" style="stop-color:#FF9F55"/>
				<stop  offset="1" style="stop-color:#FFD255"/>
			</linearGradient>
			<path style="fill:url(#SVGID_00000093860572365308275610000008249264526700999554_);" d="M1473.441,1122.045l-51.89,116.888
				l-1.395,3.14c-2.718,0.297-4.955-0.324-5.771-0.601l1.146-2.577l51.393-115.758l-74.887-80.528l-11.239-2.442l1.173-5.393
				l12.93,2.814L1473.441,1122.045z"/>
		</g>
		
			<linearGradient id="SVGID_00000001630486452572496410000003120977434916926126_" gradientUnits="userSpaceOnUse" x1="-9400.5137" y1="1251.1836" x2="-9352.4258" y2="1251.1836" gradientTransform="matrix(-1 0 0 1 -7958.9536 0)">
			<stop  offset="0" style="stop-color:#FF9F55"/>
			<stop  offset="1" style="stop-color:#FFD255"/>
		</linearGradient>
		<path style="fill:url(#SVGID_00000001630486452572496410000003120977434916926126_);" d="M1393.534,1261.53h48.026
			c0,0-0.082-1.155-0.528-2.919c-1.442-5.703-6.706-17.774-25.396-17.774c-18.692,0-21.724,12.074-22.112,17.774
			C1393.402,1260.378,1393.534,1261.53,1393.534,1261.53z"/>
		
			<linearGradient id="SVGID_00000159465312243208394970000017828577188690696353_" gradientUnits="userSpaceOnUse" x1="-9349.457" y1="1048.204" x2="-9303.5771" y2="1048.204" gradientTransform="matrix(-1 0 0 1 -7958.9536 0)">
			<stop  offset="0" style="stop-color:#FF9F55"/>
			<stop  offset="1" style="stop-color:#FFD255"/>
		</linearGradient>
		<path style="fill:url(#SVGID_00000159465312243208394970000017828577188690696353_);" d="M1344.624,1016.734l3.245,9.193
			l19.66,55.717c7.997-2.822,14.3-8.3,18.265-15.094c4.921-8.43,6.242-18.886,2.737-28.814
			C1382.205,1019.812,1362.549,1010.409,1344.624,1016.734z"/>
		<path style="fill:#FFA855;" d="M1422.763,1238.943v2.562c-0.897,0.297-1.773,0.476-2.605,0.567
			c-2.718,0.297-4.955-0.324-5.771-0.601c-0.216-0.07-0.335-0.118-0.335-0.118v-2.47l1.48,0.011l6.02,0.038L1422.763,1238.943z"/>
		<path style="fill:#FFA555;" d="M1393.534,1261.53h48.026c0,0-0.082-1.155-0.528-2.919h-47.509
			C1393.402,1260.378,1393.534,1261.53,1393.534,1261.53z"/>
		<path style="fill:#FFA855;" d="M1344.624,1016.734l3.245,9.193c11.475,9.048,29.281,24.692,37.925,40.623
			c4.921-8.43,6.242-18.886,2.737-28.814C1382.205,1019.812,1362.549,1010.409,1344.624,1016.734z"/>
	</g>
</g>
<g>
	
		<linearGradient id="SVGID_00000088104990881757515660000018088354778166581911_" gradientUnits="userSpaceOnUse" x1="-9259.2109" y1="1494.7856" x2="-9503.0791" y2="1494.7856" gradientTransform="matrix(-1 0 0 1 -7451.7983 0)">
		<stop  offset="0" style="stop-color:#FF9F55"/>
		<stop  offset="1" style="stop-color:#FFD255"/>
	</linearGradient>
	<path style="fill:url(#SVGID_00000088104990881757515660000018088354778166581911_);" d="M1722.972,1556.103h346.048
		c12.49,0,22.615-10.125,22.615-22.614v-77.404c0-12.49-10.125-22.615-22.615-22.615h-346.048V1556.103z"/>
	
		<linearGradient id="SVGID_00000034047787331892885570000017268893540568156822_" gradientUnits="userSpaceOnUse" x1="-9144.6514" y1="1697.875" x2="-9386.1572" y2="1697.875" gradientTransform="matrix(-1 0 0 1 -7451.7983 0)">
		<stop  offset="0" style="stop-color:#FF9F55"/>
		<stop  offset="1" style="stop-color:#FFD255"/>
	</linearGradient>
	<path style="fill:url(#SVGID_00000034047787331892885570000017268893540568156822_);" d="M1613.8,1739.839h421.721
		c8.976,0,16.252-7.276,16.252-16.252v-51.424c0-8.976-7.276-16.252-16.252-16.252H1613.8V1739.839z"/>
	<path style="fill:#F08533;" d="M1568.874,1665.086v65.581h-11.134v9.169h197.861c6.192,0,11.229-5.025,11.229-11.229v-61.462
		c0-6.202-5.037-11.228-11.229-11.228H1557.74v9.168H1568.874z"/>
	<path style="fill:#FAE6DE;" d="M1568.879,1730.664h177.13c5.961,0,10.794-4.833,10.794-10.794v-43.988
		c0-5.962-4.833-10.795-10.794-10.795h-177.13V1730.664z"/>
	<path style="fill:#F08533;" d="M1663.963,1446.095v97.392h-6.027v12.623h250.744c12.909,0,23.375-10.465,23.375-23.374v-75.889
		c0-12.909-10.466-23.374-23.375-23.374h-250.744v12.622H1663.963z"/>
	<path style="fill:#FAE6DE;" d="M1663.969,1543.48h231.882c12.909,0,23.376-10.466,23.376-23.375v-50.641
		c0-12.909-10.467-23.374-23.376-23.374h-231.882V1543.48z"/>
	
		<linearGradient id="SVGID_00000070803116067551162010000016263378313499895989_" gradientUnits="userSpaceOnUse" x1="-9680.5693" y1="1606.0103" x2="-9219.9355" y2="1606.0103" gradientTransform="matrix(-1 0 0 1 -7451.7983 0)">
		<stop  offset="0" style="stop-color:#609FF0"/>
		<stop  offset="1" style="stop-color:#5A3F9E"/>
	</linearGradient>
	<path style="fill:url(#SVGID_00000070803116067551162010000016263378313499895989_);" d="M1797.71,1655.911h339.768
		c15.958,0,28.896-12.937,28.896-28.896v-42.011c0-15.959-12.938-28.896-28.896-28.896H1797.71V1655.911z"/>
	<path style="fill:#495DA1;" d="M1738.701,1566.386v79.258h-6.027v10.274h245.225c15.957,0,28.894-12.938,28.894-28.896v-42.014
		c0-15.958-12.937-28.896-28.894-28.896h-245.225v10.273H1738.701z"/>
	<path style="fill:#FAE6DE;" d="M1738.707,1645.639h227.146c15.959,0,28.896-12.936,28.896-28.895v-21.467
		c0-15.959-12.938-28.896-28.896-28.896h-227.146V1645.639z"/>
	
		<rect x="1778.773" y="1591.653" transform="matrix(-1 -1.224647e-16 1.224647e-16 -1 3654.8428 3185.8125)" style="fill:#DECCC5;" width="97.296" height="2.506"/>
	
		<rect x="1817.785" y="1599.27" transform="matrix(-1 -1.224647e-16 1.224647e-16 -1 3739.4668 3201.0459)" style="fill:#DECCC5;" width="103.896" height="2.507"/>
	
		<rect x="1592.278" y="1682.051" transform="matrix(-1 -1.224647e-16 1.224647e-16 -1 3281.8535 3366.6074)" style="fill:#DECCC5;" width="97.297" height="2.506"/>
	
		<rect x="1631.29" y="1689.668" transform="matrix(-1 -1.224647e-16 1.224647e-16 -1 3366.4785 3381.8418)" style="fill:#DECCC5;" width="103.898" height="2.506"/>
	
		<rect x="1702.596" y="1696.623" transform="matrix(-1 -1.224647e-16 1.224647e-16 -1 3448.1748 3395.752)" style="fill:#DECCC5;" width="42.983" height="2.506"/>
	
		<rect x="1777.719" y="1511.944" transform="matrix(-1 -1.224647e-16 1.224647e-16 -1 3659.334 3026.3955)" style="fill:#DECCC5;" width="103.896" height="2.507"/>
	
		<rect x="1769.163" y="1518.899" transform="matrix(-1 -1.224647e-16 1.224647e-16 -1 3581.3105 3040.3047)" style="fill:#DECCC5;" width="42.984" height="2.506"/>
</g>
<g style="opacity:0.44;">
	<rect x="1639.726" y="870.484" style="fill:#B8D6FF;" width="82.856" height="6.186"/>
	<rect x="1639.726" y="879.375" style="fill:#B8D6FF;" width="82.856" height="16.752"/>
	<polygon style="fill:#B8D6FF;" points="1653.515,740.594 1653.515,796.62 1516.157,796.62 1516.157,806.465 1653.515,806.465 
		1653.515,815.175 1516.157,815.175 1516.157,856.566 1653.515,856.566 1656.607,856.566 1659.7,856.566 1659.7,740.594 	"/>
</g>
<g>
	<g>
		
			<linearGradient id="SVGID_00000163774355550431035770000015148725596835267213_" gradientUnits="userSpaceOnUse" x1="1373.1696" y1="619.8752" x2="1413.7744" y2="744.9911">
			<stop  offset="0" style="stop-color:#FF9F55"/>
			<stop  offset="1" style="stop-color:#FFD255"/>
		</linearGradient>
		<path style="fill:url(#SVGID_00000163774355550431035770000015148725596835267213_);" d="M1393.472,751.132
			c-4.794,0-8.679-3.885-8.679-8.679V622.414c0-4.793,3.885-8.68,8.679-8.68s8.68,3.887,8.68,8.68v120.039
			C1402.151,747.247,1398.266,751.132,1393.472,751.132z"/>
	</g>
	<g>
		
			<linearGradient id="SVGID_00000107557329022100732250000003652732534219345814_" gradientUnits="userSpaceOnUse" x1="1385.073" y1="656.5541" x2="1401.8711" y2="708.3141">
			<stop  offset="0" style="stop-color:#FF9F55"/>
			<stop  offset="1" style="stop-color:#FFD255"/>
		</linearGradient>
		<path style="fill:url(#SVGID_00000107557329022100732250000003652732534219345814_);" d="M1453.491,691.113h-120.038
			c-4.794,0-8.68-3.886-8.68-8.679c0-4.794,3.886-8.68,8.68-8.68h120.038c4.794,0,8.68,3.886,8.68,8.68
			C1462.171,687.227,1458.285,691.113,1453.491,691.113z"/>
	</g>
</g>
</svg>
